<?xml version="1.0" encoding="UTF-8" ?>
<svg version="1.1" width="32" height="32" xmlns="http://www.w3.org/2000/svg" shape-rendering="crispEdges">
<rect x="22" y="5" width="1" height="1" fill="#8E440F" />
<rect x="18" y="6" width="1" height="1" fill="#8E440F" />
<rect x="21" y="6" width="1" height="3" fill="#8E440F" />
<rect x="17" y="7" width="1" height="1" fill="#8E440F" />
<rect x="16" y="8" width="1" height="3" fill="#8E440F" />
<rect x="25" y="8" width="1" height="1" fill="#8E440F" />
<rect x="20" y="9" width="1" height="2" fill="#8E440F" />
<rect x="24" y="9" width="1" height="2" fill="#8E440F" />
<rect x="7" y="10" width="9" height="3" fill="#AB744F" />
<rect x="17" y="10" width="3" height="3" fill="#AB744F" />
<rect x="21" y="10" width="3" height="3" fill="#AB744F" />
<rect x="25" y="10" width="1" height="3" fill="#AB744F" />
<rect x="5" y="11" width="2" height="11" fill="#AB744F" />
<rect x="16" y="11" width="1" height="2" fill="#AB744F" />
<rect x="20" y="11" width="1" height="2" fill="#AB744F" />
<rect x="24" y="11" width="1" height="2" fill="#AB744F" />
<rect x="26" y="11" width="1" height="3" fill="#AB744F" />
<rect x="4" y="12" width="1" height="9" fill="#AB744F" />
<rect x="7" y="13" width="5" height="1" fill="#AB744F" />
<rect x="12" y="13" width="14" height="2" fill="#DDAE8F" />
<rect x="7" y="14" width="4" height="5" fill="#AB744F" />
<rect x="11" y="14" width="1" height="8" fill="#DDAE8F" />
<rect x="26" y="14" width="1" height="4" fill="#DDAE8F" />
<rect x="3" y="15" width="1" height="5" fill="#AB744F" />
<rect x="12" y="15" width="1" height="7" fill="#DDAE8F" />
<rect x="13" y="15" width="1" height="1" fill="#8E440F" />
<rect x="14" y="15" width="3" height="1" fill="#DDAE8F" />
<rect x="17" y="15" width="1" height="1" fill="#8E440F" />
<rect x="18" y="15" width="3" height="5" fill="#DDAE8F" />
<rect x="21" y="15" width="1" height="1" fill="#8E440F" />
<rect x="22" y="15" width="3" height="1" fill="#DDAE8F" />
<rect x="25" y="15" width="1" height="1" fill="#8E440F" />
<rect x="13" y="16" width="1" height="3" fill="#DDAE8F" />
<rect x="14" y="16" width="1" height="1" fill="#8E440F" />
<rect x="15" y="16" width="1" height="1" fill="#DDAE8F" />
<rect x="16" y="16" width="1" height="1" fill="#8E440F" />
<rect x="17" y="16" width="1" height="3" fill="#DDAE8F" />
<rect x="21" y="16" width="1" height="3" fill="#DDAE8F" />
<rect x="22" y="16" width="1" height="1" fill="#8E440F" />
<rect x="23" y="16" width="1" height="1" fill="#DDAE8F" />
<rect x="24" y="16" width="1" height="1" fill="#8E440F" />
<rect x="25" y="16" width="1" height="3" fill="#DDAE8F" />
<rect x="14" y="17" width="1" height="1" fill="#DDAE8F" />
<rect x="15" y="17" width="1" height="1" fill="#8E440F" />
<rect x="16" y="17" width="1" height="1" fill="#DDAE8F" />
<rect x="22" y="17" width="1" height="1" fill="#DDAE8F" />
<rect x="23" y="17" width="1" height="1" fill="#8E440F" />
<rect x="24" y="17" width="1" height="1" fill="#DDAE8F" />
<rect x="14" y="18" width="1" height="1" fill="#8E440F" />
<rect x="15" y="18" width="1" height="5" fill="#DDAE8F" />
<rect x="16" y="18" width="1" height="1" fill="#8E440F" />
<rect x="22" y="18" width="1" height="1" fill="#8E440F" />
<rect x="23" y="18" width="1" height="5" fill="#DDAE8F" />
<rect x="24" y="18" width="1" height="1" fill="#8E440F" />
<rect x="7" y="19" width="2" height="5" fill="#AB744F" />
<rect x="9" y="19" width="2" height="3" fill="#DDAE8F" />
<rect x="13" y="19" width="1" height="1" fill="#8E440F" />
<rect x="14" y="19" width="1" height="8" fill="#DDAE8F" />
<rect x="16" y="19" width="1" height="5" fill="#DDAE8F" />
<rect x="17" y="19" width="1" height="1" fill="#8E440F" />
<rect x="21" y="19" width="1" height="1" fill="#8E440F" />
<rect x="22" y="19" width="1" height="9" fill="#DDAE8F" />
<rect x="24" y="19" width="1" height="4" fill="#DDAE8F" />
<rect x="25" y="19" width="1" height="1" fill="#8E440F" />
<rect x="13" y="20" width="1" height="5" fill="#DDAE8F" />
<rect x="17" y="20" width="2" height="3" fill="#DDAE8F" />
<rect x="19" y="20" width="1" height="2" fill="#8E440F" />
<rect x="20" y="20" width="2" height="3" fill="#DDAE8F" />
<rect x="25" y="20" width="2" height="3" fill="#DDAE8F" />
<rect x="6" y="22" width="1" height="1" fill="#AB744F" />
<rect x="9" y="22" width="4" height="3" fill="#AB744F" />
<rect x="19" y="22" width="1" height="1" fill="#DDAE8F" />
<rect x="15" y="23" width="1" height="2" fill="#8E440F" />
<rect x="17" y="23" width="1" height="2" fill="#8E440F" />
<rect x="18" y="23" width="1" height="1" fill="#DDAE8F" />
<rect x="19" y="23" width="1" height="2" fill="#8E440F" />
<rect x="20" y="23" width="1" height="1" fill="#DDAE8F" />
<rect x="21" y="23" width="1" height="1" fill="#8E440F" />
<rect x="8" y="24" width="1" height="1" fill="#AB744F" />
<rect x="16" y="24" width="1" height="1" fill="#8E440F" />
<rect x="18" y="24" width="1" height="1" fill="#8E440F" />
<rect x="20" y="24" width="1" height="1" fill="#8E440F" />
<rect x="21" y="24" width="1" height="4" fill="#DDAE8F" />
<rect x="11" y="25" width="3" height="3" fill="#AB744F" />
<rect x="15" y="25" width="6" height="3" fill="#DDAE8F" />
<rect x="14" y="27" width="1" height="1" fill="#AB744F" />
</svg>